<svg xmlns="http://www.w3.org/2000/svg" xmlns:xlink="http://www.w3.org/1999/xlink" width="83" height="83.001" viewBox="0 0 83 83.001">
  <defs>
    <linearGradient id="linear-gradient" x2="0.973" y2="1" gradientUnits="objectBoundingBox">
      <stop offset="0" stop-color="#39d1ff"/>
      <stop offset="1" stop-color="#3149ff"/>
    </linearGradient>
  </defs>
  <g id="icon-5" transform="translate(-575 -343.999)">
    <rect id="Rectangle_8017" data-name="Rectangle 8017" width="83" height="83" transform="translate(575 344)" fill="none"/>
    <path id="icon-5-2" data-name="icon-5" d="M7012.309-11721.8h-18.2a14.621,14.621,0,0,1-5.077-.911l-12.215-4.543-.138-.05v.49a3.442,3.442,0,0,1-3.44,3.437h-5.6a3.44,3.44,0,0,1-3.437-3.437v-28.379a3.44,3.44,0,0,1,3.437-3.437h5.6a3.442,3.442,0,0,1,3.44,3.437v.835h.1a25.258,25.258,0,0,1,3.527.276l.129.018-.012-.129a28.643,28.643,0,0,1,2.169-13.255c2.869-7.109,8.218-13.715,15.9-19.631l.057-.043-.024-.067a.22.22,0,0,0-.015-.047.057.057,0,0,1-.007-.016l0,0,0-.01-.024-.071-.072,0c-2.23.028-7.657.511-9.9,4.337a1.131,1.131,0,0,1-.971.554,1.134,1.134,0,0,1-.561-.152,1.124,1.124,0,0,1-.518-.684,1.11,1.11,0,0,1,.116-.846c1.48-2.526,4.2-4.266,7.873-5.03a20.934,20.934,0,0,1,3.851-.419h.078l.018-.078c.012-.051.024-.1.039-.152l.015-.047-.033-.043a6.12,6.12,0,0,0-4.813-2.458,6.015,6.015,0,0,0-.725.042,12.682,12.682,0,0,1-1.364.074,11.26,11.26,0,0,1-6.267-1.891,1.116,1.116,0,0,1-.476-.713,1.117,1.117,0,0,1,.167-.839,1.131,1.131,0,0,1,.933-.493,1.118,1.118,0,0,1,.623.189,9,9,0,0,0,5.029,1.515,9.871,9.871,0,0,0,1.105-.064,8.9,8.9,0,0,1,.989-.056,8.226,8.226,0,0,1,6.021,2.7l.063.07.071-.058a4.049,4.049,0,0,1,.609-.4l.093-.055-.057-.091c-3.541-5.553-4.545-9.174-3.072-11.069a1.835,1.835,0,0,1,1.471-.8,3.016,3.016,0,0,1,1.329.391l0,0a2.735,2.735,0,0,0,1.21.361,2.214,2.214,0,0,0,1.229-.445,4.559,4.559,0,0,1,2.512-.818,4.577,4.577,0,0,1,2.514.818,2.341,2.341,0,0,0,1.285.445,2.345,2.345,0,0,0,1.289-.445,4.56,4.56,0,0,1,2.511-.818,4.579,4.579,0,0,1,2.515.818,2.226,2.226,0,0,0,1.225.442,2.8,2.8,0,0,0,1.217-.358l.008,0a3.068,3.068,0,0,1,1.311-.373,1.837,1.837,0,0,1,1.48.8c1.505,1.949.393,5.691-3.4,11.44l-.051.079.072.057a4.248,4.248,0,0,1,1.424,4.219l-.018.064.054.04c1.063.8,4.115,3.607,6.343,5.658l.094.087c.816.754,1.456,1.34,1.849,1.693l.006.006a1.135,1.135,0,0,1,.162.147l.009.009a1.4,1.4,0,0,1,.158.174l0,0c5.042,5.548,8.281,11.438,9.626,17.507a24.87,24.87,0,0,1-1.489,16.072l-.114.243,1.765-.775a6.88,6.88,0,0,1,2.918-.713,4.688,4.688,0,0,1,4.008,2.17,5.122,5.122,0,0,1-.833,6.7l0,0a.133.133,0,0,0-.021.021c-.057.045-.587.383-4.054,2.572-1.149.728-2.669,1.69-4.646,2.94l-1.473.933-2.479,1.568c-2.775,1.757-6.157,3.9-10.259,6.493A14.538,14.538,0,0,1,7012.309-11721.8Zm-35.633-30.321v22.432l13.133,4.883a12.266,12.266,0,0,0,4.3.772h18.2a12.294,12.294,0,0,0,6.593-1.911l22.7-14.369.016-.011a2.9,2.9,0,0,0,.4-3.71,2.483,2.483,0,0,0-2.14-1.183,5.053,5.053,0,0,0-2.021.508c-.008,0-.637.281-1.681.74l-1.289.566-2.263,1c-5.71,2.513-9.772,4.3-12.485,5.491l-4.474,1.968a1.141,1.141,0,0,1-.45.095h-13.8a1.12,1.12,0,0,1-1.119-1.118,1.12,1.12,0,0,1,1.119-1.118h12.689l.017-2.415v-.012a5.33,5.33,0,0,0-4.534-4.68l-13.5-1.551-.012,0h-.018a19.365,19.365,0,0,1-7.121-2.795c-3.086-1.735-6.275-3.527-12.161-3.572l-.1,0Zm-9.039-4.269a1.2,1.2,0,0,0-1.2,1.2v28.379a1.2,1.2,0,0,0,1.2,1.2h5.6a1.2,1.2,0,0,0,1.205-1.2v-28.379a1.2,1.2,0,0,0-1.205-1.2Zm42.263,9.978a7.551,7.551,0,0,1,6.459,6.733v.026c0,.031,0,.063,0,.093l-.015,1.867,15.328-6.74.027-.013.015-.024c3.278-4.771,4.3-10.928,2.877-17.335-1.27-5.721-4.36-11.3-9.183-16.581l-.006-.006c-.421-.38-1.25-1.146-1.924-1.771-2.025-1.873-5.086-4.706-6.069-5.45l-.069-.052-.06.058c-1.434,1.308-5.463,1.774-8.757,1.774-3.884,0-7.326-.589-8.565-1.466l-.063-.042-.057.045c-7.255,5.6-12.5,12.063-15.18,18.684a26.127,26.127,0,0,0-1.941,12.94l.009.069.066.018a25.853,25.853,0,0,1,7.462,3.2l.008,0a15.332,15.332,0,0,0,6.1,2.416l13.492,1.554Zm-7.807-44.1a1.643,1.643,0,0,0-1.549,1.587,1.783,1.783,0,0,0,1.235,2.046,26.986,26.986,0,0,0,6.656.846,27.028,27.028,0,0,0,6.657-.846,1.752,1.752,0,0,0,1.237-2.027,1.677,1.677,0,0,0-1.562-1.6,1.646,1.646,0,0,0-.425.057,24.1,24.1,0,0,1-5.907.746,24.087,24.087,0,0,1-5.906-.746A1.767,1.767,0,0,0,7002.092-11790.514Zm-3.078-11.474h0l-.037.136a5.068,5.068,0,0,0,.513,2.9,33.557,33.557,0,0,0,3.413,6.263l.024.032.039.01a26.4,26.4,0,0,0,5.751.7,17.713,17.713,0,0,0,3.764-.4c.112-.023.219-.045.323-.068l.108-.023.05-.011.148-.033.006,0a7.861,7.861,0,0,1,1.6-.254h.1l.03-.046c3.374-5.018,4.253-7.972,3.95-9.061l-.033-.117-.108.054a5.157,5.157,0,0,1-2.257.6,4.391,4.391,0,0,1-2.424-.808,2.318,2.318,0,0,0-1.289-.45,2.316,2.316,0,0,0-1.286.45l0,0a4.164,4.164,0,0,1-2.51.8,4.395,4.395,0,0,1-2.471-.765l-.008,0a2.6,2.6,0,0,0-1.327-.493,2.327,2.327,0,0,0-1.279.462,4.432,4.432,0,0,1-2.44.811,4.952,4.952,0,0,1-2.215-.6.1.1,0,0,1-.026-.013Zm7.681,51.08h-2.544v-5.1l-.052-.029a10,10,0,0,1-1.833-1.351,9.393,9.393,0,0,1-2.176-3.077,9.507,9.507,0,0,1-.785-3.9,9.8,9.8,0,0,1,.77-3.886,9.153,9.153,0,0,1,2.173-3.086,9.778,9.778,0,0,1,1.852-1.352l.052-.028v-5.006h2.544v3.99l.123-.029a12.157,12.157,0,0,1,2.854-.323,12.613,12.613,0,0,1,1.687.108l.114.014v-3.76h2.545v4.47l.06.026a9.279,9.279,0,0,1,2.535,1.605,6.832,6.832,0,0,1,1.7,2.289l-2.823,1.2a5.836,5.836,0,0,0-2.17-2.447,6.615,6.615,0,0,0-3.644-.976,7.686,7.686,0,0,0-3.765.91,6.444,6.444,0,0,0-2.55,2.521,7.549,7.549,0,0,0-.908,3.756,7.625,7.625,0,0,0,.908,3.773,6.38,6.38,0,0,0,2.55,2.519,7.787,7.787,0,0,0,3.765.9,6.7,6.7,0,0,0,3.641-.961,5.721,5.721,0,0,0,2.173-2.44l2.823,1.2a6.982,6.982,0,0,1-1.7,2.28,9.1,9.1,0,0,1-2.532,1.617l-.06.027v4.534h-2.545v-3.823l-.114.015a13.067,13.067,0,0,1-1.687.107,11.938,11.938,0,0,1-2.854-.335l-.123-.031v4.067Z" transform="translate(-6389.099 12148.802)" fill="url(#linear-gradient)"/>
  </g>
</svg>
