<svg xmlns="http://www.w3.org/2000/svg" xmlns:xlink="http://www.w3.org/1999/xlink" width="101" height="83" viewBox="0 0 101 83">
  <defs>
    <linearGradient id="linear-gradient" x2="1" y2="1" gradientUnits="objectBoundingBox">
      <stop offset="0" stop-color="#39d1ff"/>
      <stop offset="1" stop-color="#3149ff"/>
    </linearGradient>
  </defs>
  <g id="icon-1" transform="translate(-198 -2944)">
    <rect id="Rectangle_8015" data-name="Rectangle 8015" width="101" height="83" transform="translate(198 2944)" fill="none"/>
    <path id="icon-1-2" data-name="icon-1" d="M8834-9073.66v-66.148A15.236,15.236,0,0,1,8849.191-9155h70.442a15.235,15.235,0,0,1,15.192,15.189v66.15Zm2.424-2.429,95.978,0v-37.8h-9.709v21.627h-1.216a4.708,4.708,0,0,0-4.7,4.7v1.214h-64.728v-1.216a4.712,4.712,0,0,0-4.7-4.7h-1.218v-21.63h-9.71Zm12.136-18.62,1.214.445a7.16,7.16,0,0,1,4.273,4.271l.443,1.216h59.841l.443-1.216a7.157,7.157,0,0,1,4.271-4.271l1.215-.445v-19.183h-22.3l-.273,1.523a13.551,13.551,0,0,1-10.9,10.9,13.508,13.508,0,0,1-15.66-10.9l-.273-1.523h-22.3Zm24.784-20.033a11.083,11.083,0,0,0,11.07,11.07,11.081,11.081,0,0,0,11.069-11.07v-11.149h-22.14Zm-36.92-1.568h34.494v-9.581h-34.494Zm61.486,0,34.491,0v-9.578H8897.91Zm24-32.982a6.9,6.9,0,0,1,.586,3.164v17.817h9.9v-11.5a12.715,12.715,0,0,0-8.08-11.869l-4.919-1.551S8921.39-9150.341,8921.913-9149.3Zm-73.16,3.164v17.817h71.32v-17.822a6.464,6.464,0,0,0-6.438-6.437h-58.441A6.464,6.464,0,0,0,8848.753-9146.134Zm-4.244-5.549a12.712,12.712,0,0,0-8.078,11.872v11.494h9.9v-17.817a6.973,6.973,0,0,1,.588-3.166c.526-1.041,2.514-3.934,2.514-3.934Zm36,39.229v-7.718h7.722v7.718Z" transform="translate(-8636 12100)" fill="url(#linear-gradient)"/>
  </g>
</svg>
