<svg xmlns="http://www.w3.org/2000/svg" xmlns:xlink="http://www.w3.org/1999/xlink" width="95" height="83" viewBox="0 0 95 83">
  <defs>
    <linearGradient id="linear-gradient" x2="1" y2="1" gradientUnits="objectBoundingBox">
      <stop offset="0" stop-color="#39d1ff"/>
      <stop offset="1" stop-color="#3149ff"/>
    </linearGradient>
  </defs>
  <g id="Group_11833" data-name="Group 11833" transform="translate(-956 -2944)">
    <rect id="Rectangle_8012" data-name="Rectangle 8012" width="95" height="83" transform="translate(956 2944)" fill="none"/>
    <path id="icon-3" d="M8897.625-9082.67l-.143-.126c-2.123-1.693-1.585-3.093-1.406-3.552a14.235,14.235,0,0,1,8.844-7.543l1.82-.533-.6-1.8a1.115,1.115,0,0,1-.053-.285c-.243-4.685,2.454-9.59,6.87-12.492l1.509-.99-.974-1.519a15.021,15.021,0,0,1-1.347-13.53c.18-.476.37-.926.586-1.381l1.039-2.183-2.388-.4a15.537,15.537,0,0,1-11.226-8.221c-2.762-5.393-2.388-11.562.955-15.718a14.383,14.383,0,0,1,1.657-1.739,1.156,1.156,0,0,1,.788-.319l.027,0a1.074,1.074,0,0,1,.77.345.945.945,0,0,1,.134.175,9.873,9.873,0,0,0,5.9,4.3,12.488,12.488,0,0,1,8.625,8.375,12.843,12.843,0,0,1,.487,5.96l-.4,2.553,2.541-.476a10.352,10.352,0,0,1,1.685-.175h0a1.1,1.1,0,0,1,.836.363c3.327,3.708,4.219,9.5,2.269,14.748a15.151,15.151,0,0,1-2.872,4.827l-1.894,2.148,2.746.809a10.432,10.432,0,0,1,3.441,1.758,1.1,1.1,0,0,1,.423.813c.26,4.979-2.687,10.045-7.5,12.9a16.16,16.16,0,0,1-1.765.905l-2.663,1.165,2.208,1.893a10.471,10.471,0,0,1,2.449,3.061,1.091,1.091,0,0,1,.051.912c-1.826,4.637-6.6,8.03-12.168,8.642a16.613,16.613,0,0,1-1.755.094c-.1,0-.2,0-.3,0A13.133,13.133,0,0,1,8897.625-9082.67Zm10.643-9.693a12.959,12.959,0,0,0-9.479,5.6l-.846,1.235,1.045,1.071a11.321,11.321,0,0,0,8.051,3.382,11.035,11.035,0,0,0,1.634-.122,12.954,12.954,0,0,0,9.482-5.6l.846-1.236-1.048-1.068a11.287,11.287,0,0,0-8.054-3.382A11.185,11.185,0,0,0,8908.268-9092.363Zm6.42-15.125a12.97,12.97,0,0,0-6.318,9.027l-.258,1.475,1.395.543a11.2,11.2,0,0,0,4.063.758,11.239,11.239,0,0,0,6.1-1.792,12.968,12.968,0,0,0,6.32-9.029l.258-1.476-1.395-.542a11.248,11.248,0,0,0-4.061-.756A11.271,11.271,0,0,0,8914.688-9107.488Zm6.78-23.978a11.294,11.294,0,0,0-7.259,7.193,12.958,12.958,0,0,0,.759,11l.726,1.312,1.425-.457a11.287,11.287,0,0,0,7.258-7.189,12.964,12.964,0,0,0-.756-11l-.726-1.31Zm-19.544-18.746a12.9,12.9,0,0,0,.216,12.042,13.289,13.289,0,0,0,11.819,7.187h.917l.579-.735a10.209,10.209,0,0,0,1.468-9.4,10.318,10.318,0,0,0-7.226-6.96,12.71,12.71,0,0,1-4.938-2.684l-1.771-1.558Zm-46.763,71.313a16.618,16.618,0,0,1-1.756-.094c-5.566-.611-10.341-4-12.165-8.642a1.08,1.08,0,0,1,.048-.912,10.518,10.518,0,0,1,2.449-3.061l2.208-1.893-2.663-1.165a16.522,16.522,0,0,1-1.765-.905c-4.815-2.858-7.759-7.925-7.5-12.9a1.1,1.1,0,0,1,.421-.813,10.475,10.475,0,0,1,3.444-1.758l2.745-.809-1.893-2.148a15.115,15.115,0,0,1-2.872-4.827c-1.948-5.25-1.06-11.04,2.268-14.748a1.11,1.11,0,0,1,.839-.363,10.351,10.351,0,0,1,1.684.175l2.539.476-.4-2.553a12.816,12.816,0,0,1,.484-5.96,12.491,12.491,0,0,1,8.628-8.375,9.89,9.89,0,0,0,5.9-4.3,1.073,1.073,0,0,1,.131-.175,1.074,1.074,0,0,1,.77-.345l.028,0a1.16,1.16,0,0,1,.79.319,14.359,14.359,0,0,1,1.654,1.739c3.343,4.156,3.718,10.325.958,15.718A15.546,15.546,0,0,1,8850.91-9129l-2.387.4,1.038,2.183c.219.455.407.905.586,1.381a15.024,15.024,0,0,1-1.344,13.53l-.977,1.519,1.51.99c4.416,2.9,7.113,7.808,6.872,12.492a1.162,1.162,0,0,1-.056.285l-.6,1.8,1.817.533a14.233,14.233,0,0,1,8.844,7.543c.179.459.717,1.858-1.406,3.552l-.143.126a13.133,13.133,0,0,1-9.209,3.775C8855.358-9078.895,8855.26-9078.895,8855.161-9078.9Zm-10.822-10.2-1.045,1.068.843,1.236a12.954,12.954,0,0,0,9.482,5.6,11.035,11.035,0,0,0,1.634.122,11.319,11.319,0,0,0,8.051-3.382l1.048-1.071-.846-1.235a12.97,12.97,0,0,0-9.482-5.6,11.172,11.172,0,0,0-1.63-.119A11.289,11.289,0,0,0,8844.339-9089.1Zm-6.9-19.424-1.395.542.257,1.476a12.961,12.961,0,0,0,6.321,9.029,11.243,11.243,0,0,0,6.1,1.792,11.2,11.2,0,0,0,4.063-.758l1.395-.543-.257-1.475a12.967,12.967,0,0,0-6.318-9.027,11.272,11.272,0,0,0-6.107-1.792A11.239,11.239,0,0,0,8837.438-9108.524Zm1.233-22.087a12.967,12.967,0,0,0-.756,11,11.293,11.293,0,0,0,7.258,7.189l1.425.457.729-1.312a12.968,12.968,0,0,0,.756-11,11.288,11.288,0,0,0-7.258-7.193l-1.425-.455Zm18.861-20.15a12.719,12.719,0,0,1-4.936,2.684,10.311,10.311,0,0,0-7.226,6.96,10.2,10.2,0,0,0,1.466,9.4l.579.735h.919a13.288,13.288,0,0,0,11.816-7.187,12.9,12.9,0,0,0,.216-12.042l-1.062-2.107Zm25.115,45.525a7.424,7.424,0,0,1,7.416-7.417,7.438,7.438,0,0,1,7.422,7.417,7.426,7.426,0,0,1-7.419,7.419A7.425,7.425,0,0,1,8882.647-9105.236Zm2.818,0a4.605,4.605,0,0,0,4.6,4.6,4.605,4.605,0,0,0,4.6-4.6,4.607,4.607,0,0,0-4.6-4.6A4.607,4.607,0,0,0,8885.466-9105.239Zm-20.255,5.021.211-.211,29.664-29.665,2,2-.214.211-29.664,29.664Zm-.4-22.861a7.425,7.425,0,0,1,7.416-7.416h0a7.365,7.365,0,0,1,5.243,2.171,7.37,7.37,0,0,1,2.173,5.245,7.365,7.365,0,0,1-2.171,5.246,7.374,7.374,0,0,1-5.243,2.173A7.438,7.438,0,0,1,8864.807-9123.08Zm2.818,0a4.605,4.605,0,0,0,4.6,4.6,4.6,4.6,0,0,0,4.6-4.6,4.6,4.6,0,0,0-4.6-4.6A4.605,4.605,0,0,0,8867.625-9123.075Z" transform="translate(-7878 12102)" fill="url(#linear-gradient)"/>
  </g>
</svg>
