<svg xmlns="http://www.w3.org/2000/svg" xmlns:xlink="http://www.w3.org/1999/xlink" width="83" height="83" viewBox="0 0 83 83">
  <defs>
    <linearGradient id="linear-gradient" y1="0.03" x2="1" y2="1" gradientUnits="objectBoundingBox">
      <stop offset="0" stop-color="#39d1ff"/>
      <stop offset="1" stop-color="#3149ff"/>
    </linearGradient>
  </defs>
  <g id="icon-6" transform="translate(-956 -344)">
    <rect id="Rectangle_8018" data-name="Rectangle 8018" width="83" height="83" transform="translate(956 344)" fill="none"/>
    <path id="icon-6-2" data-name="icon-6" d="M7029.111-11722.659a33.673,33.673,0,0,1-14.719-3.063,15.677,15.677,0,0,1-4.062-2.823l-1.3-1.292-1.3,1.292a15.706,15.706,0,0,1-4.059,2.823,33.681,33.681,0,0,1-14.722,3.063,33.68,33.68,0,0,1-14.721-3.063c-2.437-1.217-6.524-3.893-6.524-8.142v-56.234c0-4.245,4.087-6.921,6.524-8.138a33.661,33.661,0,0,1,14.721-3.063,33.682,33.682,0,0,1,14.722,3.063c2.437,1.217,6.523,3.893,6.523,8.141v22.454l2.812-1.712c.445-.272.913-.53,1.389-.768a33.686,33.686,0,0,1,14.719-3.063,33.692,33.692,0,0,1,14.721,3.063c2.437,1.217,6.524,3.893,6.527,8.142v28.115c0,4.249-4.089,6.925-6.527,8.142A33.68,33.68,0,0,1,7029.111-11722.659Zm-18.92-19.6h0v8.4a4.916,4.916,0,0,0,1.295,3.149,12.126,12.126,0,0,0,3.943,2.912,31.365,31.365,0,0,0,13.682,2.818,31.347,31.347,0,0,0,13.682-2.818,12.192,12.192,0,0,0,3.946-2.912,4.916,4.916,0,0,0,1.294-3.149v-8.4l-2.814,1.712c-.424.261-.891.52-1.387.768a33.692,33.692,0,0,1-14.721,3.063,33.686,33.686,0,0,1-14.719-3.063c-.477-.237-.944-.5-1.389-.768l-2.812-1.712Zm-40.167,0h0v8.4a4.91,4.91,0,0,0,1.3,3.149,12.134,12.134,0,0,0,3.943,2.912,31.365,31.365,0,0,0,13.682,2.818,31.34,31.34,0,0,0,13.679-2.818,12.124,12.124,0,0,0,3.946-2.912,4.916,4.916,0,0,0,1.294-3.149v-8.4l-2.812,1.712c-.447.273-.914.531-1.386.768a33.693,33.693,0,0,1-14.722,3.063,33.692,33.692,0,0,1-14.721-3.063c-.5-.248-.962-.507-1.387-.768l-2.814-1.712Zm40.167-14.059h0v8.4a4.92,4.92,0,0,0,1.295,3.149,12.154,12.154,0,0,0,3.943,2.912,31.374,31.374,0,0,0,13.682,2.817,31.355,31.355,0,0,0,13.682-2.817,12.184,12.184,0,0,0,3.946-2.912,4.918,4.918,0,0,0,1.294-3.149v-8.4l-2.814,1.713c-.424.261-.891.52-1.387.768a33.736,33.736,0,0,1-14.721,3.061,33.712,33.712,0,0,1-14.719-3.061c-.49-.245-.957-.5-1.389-.768l-2.812-1.713Zm-40.167,0h0v8.4a4.912,4.912,0,0,0,1.3,3.149,12.154,12.154,0,0,0,3.943,2.912,31.374,31.374,0,0,0,13.682,2.817,31.348,31.348,0,0,0,13.679-2.817,12.148,12.148,0,0,0,3.946-2.912,4.918,4.918,0,0,0,1.294-3.149v-8.4l-2.812,1.713c-.441.27-.907.527-1.386.768a33.694,33.694,0,0,1-14.722,3.063,33.692,33.692,0,0,1-14.721-3.063c-.5-.248-.962-.507-1.387-.768l-2.814-1.713Zm59.087-14.54a31.348,31.348,0,0,0-13.679,2.817,12.148,12.148,0,0,0-3.946,2.912,4.92,4.92,0,0,0-1.295,3.149,4.916,4.916,0,0,0,1.295,3.146,12.126,12.126,0,0,0,3.943,2.915,31.374,31.374,0,0,0,13.682,2.817,31.374,31.374,0,0,0,13.682-2.817,12.177,12.177,0,0,0,3.946-2.915,4.915,4.915,0,0,0,1.294-3.146,4.918,4.918,0,0,0-1.294-3.149,12.216,12.216,0,0,0-3.946-2.912A31.355,31.355,0,0,0,7029.111-11770.858Zm-59.087.482h0v8.4a4.912,4.912,0,0,0,1.3,3.149,12.1,12.1,0,0,0,3.943,2.909,31.333,31.333,0,0,0,13.682,2.82,31.348,31.348,0,0,0,13.679-2.817,12.148,12.148,0,0,0,3.946-2.912,4.918,4.918,0,0,0,1.294-3.149v-8.4l-2.812,1.713c-.448.27-.914.528-1.386.767a33.717,33.717,0,0,1-14.722,3.063,33.717,33.717,0,0,1-14.721-3.063c-.491-.248-.958-.506-1.387-.767l-2.814-1.713Zm0-14.061h0v8.4a4.917,4.917,0,0,0,1.3,3.148,12.19,12.19,0,0,0,3.943,2.91,31.345,31.345,0,0,0,13.682,2.82,31.319,31.319,0,0,0,13.679-2.82,12.16,12.16,0,0,0,3.946-2.91,4.923,4.923,0,0,0,1.294-3.148v-8.4l-2.812,1.715c-.448.271-.915.528-1.386.765a33.682,33.682,0,0,1-14.722,3.063,33.661,33.661,0,0,1-14.721-3.063c-.48-.24-.947-.5-1.387-.765l-2.814-1.715Zm18.922-14.538a31.349,31.349,0,0,0-13.682,2.817,12.154,12.154,0,0,0-3.943,2.912,4.912,4.912,0,0,0-1.3,3.149,4.905,4.905,0,0,0,1.3,3.146,12.167,12.167,0,0,0,3.943,2.915,31.365,31.365,0,0,0,13.682,2.818,31.34,31.34,0,0,0,13.679-2.818,12.129,12.129,0,0,0,3.946-2.915,4.912,4.912,0,0,0,1.294-3.146,4.918,4.918,0,0,0-1.294-3.149,12.148,12.148,0,0,0-3.946-2.912A31.323,31.323,0,0,0,6988.946-11798.975Z" transform="translate(-6011.53 12147.61)" fill="url(#linear-gradient)"/>
  </g>
</svg>
