<svg xmlns="http://www.w3.org/2000/svg" xmlns:xlink="http://www.w3.org/1999/xlink" width="83" height="83" viewBox="0 0 83 83">
  <defs>
    <linearGradient id="linear-gradient" x2="1" y2="1" gradientUnits="objectBoundingBox">
      <stop offset="0" stop-color="#39d1ff"/>
      <stop offset="1" stop-color="#3149ff"/>
    </linearGradient>
  </defs>
  <g id="icon-4" transform="translate(-198 -344)">
    <rect id="Rectangle_8016" data-name="Rectangle 8016" width="83" height="83" transform="translate(198 344)" fill="none"/>
    <path id="icon-4-2" data-name="icon-4" d="M6975.771-11722.358l-.077-.021-8.734-2.181a3.907,3.907,0,0,1-2.96-3.792v-46.78l2.1-1.052-2.1-3.155v-19.079a6.586,6.586,0,0,1,6.58-6.58h11.2l2.355,2.352a.1.1,0,0,0,.116.021l.018-.013.024,0,12.725-2.357h23.915a2.564,2.564,0,0,1,1.428.433l7.086,4.722a2.564,2.564,0,0,1,1.144,2.14v34.4l-.026.038-3.846,5.771a1.437,1.437,0,0,0-.192,1.167,1.43,1.43,0,0,0,.743.916l3.321,1.659v24.815a6.586,6.586,0,0,1-6.58,6.58Zm-9.3-76.061v18.329l2.047,3.069a1.908,1.908,0,0,1,.255,1.544,1.907,1.907,0,0,1-.99,1.215l-1.312.657v45.252a1.439,1.439,0,0,0,1.09,1.4l8.518,2.13h47.933a4.118,4.118,0,0,0,4.112-4.111v-23.287l-1.956-.978a3.921,3.921,0,0,1-2.029-2.494,3.913,3.913,0,0,1,.524-3.168l3.46-5.187v-33.652a.1.1,0,0,0-.047-.083l-7.084-4.726a.1.1,0,0,0-.059-.018h-23.375l-12.221,2.121a2.576,2.576,0,0,1-1.129.264,2.565,2.565,0,0,1-1.819-.753l-1.629-1.632H6970.58A4.118,4.118,0,0,0,6966.468-11798.419Zm44.822,55.176a1.688,1.688,0,0,1-1.683-1.688,1.687,1.687,0,0,1,1.683-1.688h3.125a1.688,1.688,0,0,1,1.689,1.688,1.689,1.689,0,0,1-1.689,1.688Zm-31.12,0a1.689,1.689,0,0,1-1.686-1.688,1.688,1.688,0,0,1,1.686-1.688h21.746a1.688,1.688,0,0,1,1.688,1.688,1.689,1.689,0,0,1-1.688,1.688Zm23.31-12.5a1.687,1.687,0,0,1-1.686-1.686,1.686,1.686,0,0,1,1.686-1.686h10.935a1.687,1.687,0,0,1,1.689,1.686,1.688,1.688,0,0,1-1.689,1.686Zm-23.31,0a1.687,1.687,0,0,1-1.686-1.686,1.687,1.687,0,0,1,1.686-1.686h13.937a1.687,1.687,0,0,1,1.688,1.686,1.687,1.687,0,0,1-1.688,1.686Zm0-12.5a1.687,1.687,0,0,1-1.686-1.687,1.688,1.688,0,0,1,1.686-1.688h34.245a1.688,1.688,0,0,1,1.689,1.688,1.688,1.688,0,0,1-1.689,1.687Zm31.12-12.5a1.689,1.689,0,0,1-1.683-1.688,1.688,1.688,0,0,1,1.683-1.688h3.125a1.689,1.689,0,0,1,1.689,1.688,1.69,1.69,0,0,1-1.689,1.688Zm-31.12,0a1.69,1.69,0,0,1-1.686-1.688,1.689,1.689,0,0,1,1.686-1.688h21.746a1.689,1.689,0,0,1,1.688,1.688,1.69,1.69,0,0,1-1.688,1.688Z" transform="translate(-6766 12149.311)" fill="url(#linear-gradient)"/>
  </g>
</svg>
