<svg xmlns="http://www.w3.org/2000/svg" xmlns:xlink="http://www.w3.org/1999/xlink" width="94" height="83" viewBox="0 0 94 83">
  <defs>
    <linearGradient id="linear-gradient" x2="1" y2="1" gradientUnits="objectBoundingBox">
      <stop offset="0" stop-color="#39d1ff"/>
      <stop offset="1" stop-color="#3149ff"/>
    </linearGradient>
  </defs>
  <g id="icon-2" transform="translate(-575 -2944)">
    <rect id="Rectangle_8014" data-name="Rectangle 8014" width="94" height="83" transform="translate(575 2944)" fill="none"/>
    <path id="icon-2-2" data-name="icon-2" d="M8860.27-9072c-7.514,0-10-2.342-12.447-7.257-5.163-10.353-13.822-29.481-13.822-41.245,0-7.928,2.957-14.074,5.334-19.013,2.855-5.941,4.482-9.788,2.041-13.855a1.079,1.079,0,0,1-.118-.815,1.077,1.077,0,0,1,.489-.66,1.083,1.083,0,0,1,.556-.154H8905.6a1.086,1.086,0,0,1,.556.154,1.073,1.073,0,0,1,.489.662,1.066,1.066,0,0,1-.121.816c-2.443,4.069-.9,7.731,2.046,13.853,2.377,4.938,5.334,11.085,5.334,19.013,0,11.764-8.661,30.893-13.822,41.248-2.453,4.912-4.94,7.254-12.449,7.254Zm-22.6-41.327-.526.649.2.81a102.667,102.667,0,0,0,3.744,11.994l2.224,5.627c1.843,4.439,4.009,9.16,6.438,14.039,1.874,3.758,3.386,6.06,10.524,6.06h27.356c7.139,0,8.647-2.3,10.522-6.058,2.435-4.893,4.6-9.622,6.447-14.068l2.219-5.616a102.2,102.2,0,0,0,3.737-11.975l.2-.812-.523-.646c-3.1-3.854-5.692-2.775-9.026-.7v-2.507c2.474-1.388,5.152-2.283,7.917-.65l2.327,1.376.215-2.694c.059-.738.086-1.394.086-2,0-.575-.019-1.136-.051-1.688l-.04-.739-.572-.468a8.954,8.954,0,0,0-9.882-1.5v-2.316a12.385,12.385,0,0,1,3.98-.707h.01a9.863,9.863,0,0,1,3.045.478l3.143,1.011-1.021-3.14a62.1,62.1,0,0,0-3.736-9l-.049-.1c-.606-1.265-1.232-2.569-1.774-3.855l-.436-1.032h-60.834l-.435,1.032c-.554,1.313-1.193,2.644-1.812,3.933a62.519,62.519,0,0,0-3.75,9.033l-1.021,3.135,3.145-1.014a9.89,9.89,0,0,1,3.058-.478h0a12.671,12.671,0,0,1,4.336.843v2.337c-3.352-1.412-6.642-1.617-10.246,1.349l-.569.471-.041.736c-.032.553-.05,1.115-.05,1.688,0,.613.027,1.27.086,2.007l.212,2.692,2.327-1.376c2.9-1.715,5.706-.646,8.281.854v2.533c-1.871-1.186-3.5-2.108-5.1-2.108C8840.545-9115.9,8839.164-9115.2,8837.667-9113.327Zm6.936-37.557a10.527,10.527,0,0,1,.026,3.224l-.286,1.934h59.217l-.282-1.934a10.4,10.4,0,0,1,.024-3.224l.32-1.96H8844.28Zm14.047,58.519,11.978-11.978h6.356l5.682-5.685v-11.752h-11.749l-5.685,5.688v6.354l-11.978,11.978v-23.295l12.7-12.7h28.692v28.69l-12.7,12.7Zm5.247-2.173h17.147l11.426-11.426v-25.617h-25.614l-11.426,11.428v17.145l7.63-7.629v-6.356l6.955-6.957h14.825v14.825l-6.955,6.959h-6.358Z" transform="translate(-8259 12099)" fill="url(#linear-gradient)"/>
  </g>
</svg>
